<svg width="22" height="22" viewBox="0 0 22 22" fill="none" xmlns="http://www.w3.org/2000/svg">
<path d="M7.5875 21.5C7.27639 21.5 6.97967 21.4417 6.69733 21.325C6.41578 21.2083 6.16806 21.0431 5.95417 20.8292L1.17083 16.0458C0.956944 15.8319 0.791667 15.5842 0.675 15.3027C0.558333 15.0203 0.5 14.7236 0.5 14.4125V7.5875C0.5 7.27639 0.558333 6.97967 0.675 6.69733C0.791667 6.41578 0.956944 6.16806 1.17083 5.95417L5.95417 1.17083C6.16806 0.956944 6.41578 0.791667 6.69733 0.675C6.97967 0.558333 7.27639 0.5 7.5875 0.5H14.4125C14.7236 0.5 15.0203 0.558333 15.3027 0.675C15.5842 0.791667 15.8319 0.956944 16.0458 1.17083L20.8292 5.95417C21.0431 6.16806 21.2083 6.41578 21.325 6.69733C21.4417 6.97967 21.5 7.27639 21.5 7.5875V14.4125C21.5 14.7236 21.4417 15.0203 21.325 15.3027C21.2083 15.5842 21.0431 15.8319 20.8292 16.0458L16.0458 20.8292C15.8319 21.0431 15.5842 21.2083 15.3027 21.325C15.0203 21.4417 14.7236 21.5 14.4125 21.5H7.5875ZM11 12.6333L13.5375 15.1708C13.7514 15.3847 14.0139 15.4917 14.325 15.4917C14.6361 15.4917 14.9083 15.375 15.1417 15.1417C15.3556 14.9278 15.4625 14.6556 15.4625 14.325C15.4625 13.9944 15.3556 13.7222 15.1417 13.5083L12.6333 11L15.1708 8.4625C15.3847 8.24861 15.4917 7.98611 15.4917 7.675C15.4917 7.36389 15.375 7.09167 15.1417 6.85833C14.9278 6.64444 14.6556 6.5375 14.325 6.5375C13.9944 6.5375 13.7222 6.64444 13.5083 6.85833L11 9.36667L8.4625 6.82917C8.24861 6.61528 7.98611 6.50833 7.675 6.50833C7.36389 6.50833 7.09167 6.625 6.85833 6.85833C6.64444 7.07222 6.5375 7.34444 6.5375 7.675C6.5375 8.00555 6.64444 8.27778 6.85833 8.49167L9.36667 11L6.82917 13.5375C6.61528 13.7514 6.50833 14.0139 6.50833 14.325C6.50833 14.6361 6.625 14.9083 6.85833 15.1417C7.07222 15.3556 7.34444 15.4625 7.675 15.4625C8.00555 15.4625 8.27778 15.3556 8.49167 15.1417L11 12.6333ZM7.61667 19.1667H14.3833L19.1667 14.3833V7.61667L14.3833 2.83333H7.61667L2.83333 7.61667V14.3833L7.61667 19.1667Z" fill="#C62828"/>
</svg>
