<svg width="27" height="26" viewBox="0 0 27 26" fill="none" xmlns="http://www.w3.org/2000/svg">
<path d="M24.6667 11.6667L23.9375 10.0625L22.3333 9.33333L23.9375 8.60417L24.6667 7L25.3958 8.60417L27 9.33333L25.3958 10.0625L24.6667 11.6667ZM21.1667 7L20.0583 4.60833L17.6667 3.5L20.0583 2.39167L21.1667 0L22.275 2.39167L24.6667 3.5L22.275 4.60833L21.1667 7ZM9.5 25.6667C8.85833 25.6667 8.30903 25.4382 7.85208 24.9812C7.39514 24.5243 7.16667 23.975 7.16667 23.3333H11.8333C11.8333 23.975 11.6049 24.5243 11.1479 24.9812C10.691 25.4382 10.1417 25.6667 9.5 25.6667ZM4.83333 22.1667V19.8333H14.1667V22.1667H4.83333ZM5.125 18.6667C3.78333 17.8694 2.71875 16.8 1.93125 15.4583C1.14375 14.1167 0.75 12.6583 0.75 11.0833C0.75 8.65278 1.60069 6.58681 3.30208 4.88542C5.00347 3.18403 7.06944 2.33333 9.5 2.33333C11.9306 2.33333 13.9965 3.18403 15.6979 4.88542C17.3993 6.58681 18.25 8.65278 18.25 11.0833C18.25 12.6583 17.8562 14.1167 17.0688 15.4583C16.2812 16.8 15.2167 17.8694 13.875 18.6667H5.125ZM5.825 16.3333H13.175C14.05 15.7111 14.7257 14.9431 15.2021 14.0292C15.6785 13.1153 15.9167 12.1333 15.9167 11.0833C15.9167 9.29444 15.2944 7.77778 14.05 6.53333C12.8056 5.28889 11.2889 4.66667 9.5 4.66667C7.71111 4.66667 6.19444 5.28889 4.95 6.53333C3.70556 7.77778 3.08333 9.29444 3.08333 11.0833C3.08333 12.1333 3.32153 13.1153 3.79792 14.0292C4.27431 14.9431 4.95 15.7111 5.825 16.3333Z" fill="#558B2F"/>
</svg>
