<svg width="20" height="15" viewBox="0 0 16 12" fill="none" xmlns="http://www.w3.org/2000/svg">
<path d="M8.03464 11.3327C6.54575 11.3327 5.27908 10.816 4.23464 9.78268C3.19019 8.74935 2.66797 7.48824 2.66797 5.99935V5.88268L1.6013 6.94935L0.667969 6.01602L3.33464 3.34935L6.0013 6.01602L5.06797 6.94935L4.0013 5.88268V5.99935C4.0013 7.11046 4.39297 8.0549 5.1763 8.83268C5.95964 9.61046 6.91241 9.99935 8.03464 9.99935C8.32352 9.99935 8.60686 9.96602 8.88464 9.89935C9.16241 9.83268 9.43464 9.73268 9.7013 9.59935L10.7013 10.5993C10.2791 10.8438 9.84575 11.0271 9.4013 11.1493C8.95686 11.2716 8.5013 11.3327 8.03464 11.3327ZM12.668 8.64935L10.0013 5.98268L10.9346 5.04935L12.0013 6.11602V5.99935C12.0013 4.88824 11.6096 3.94379 10.8263 3.16602C10.043 2.38824 9.09019 1.99935 7.96797 1.99935C7.67908 1.99935 7.39575 2.03268 7.11797 2.09935C6.84019 2.16602 6.56797 2.26602 6.3013 2.39935L5.3013 1.39935C5.72352 1.1549 6.15686 0.971571 6.6013 0.849349C7.04575 0.727127 7.5013 0.666016 7.96797 0.666016C9.45686 0.666016 10.7235 1.18268 11.768 2.21602C12.8124 3.24935 13.3346 4.51046 13.3346 5.99935V6.11602L14.4013 5.04935L15.3346 5.98268L12.668 8.64935Z" fill="#558B2F"/>
</svg>
