<svg width="24" height="24" viewBox="0 0 24 24" fill="none" xmlns="http://www.w3.org/2000/svg">
<path d="M10.3673 14.1007L7.82982 11.5632C7.61593 11.3493 7.34876 11.2474 7.02832 11.2575C6.7071 11.2668 6.43954 11.3784 6.22565 11.5923C6.01176 11.8062 5.90482 12.0784 5.90482 12.409C5.90482 12.7395 6.01176 13.0118 6.22565 13.2257L9.55065 16.5507C9.76454 16.7645 10.0368 16.8715 10.3673 16.8715C10.6979 16.8715 10.9701 16.7645 11.184 16.5507L17.8048 9.92982C18.0187 9.71593 18.121 9.44837 18.1117 9.12715C18.1015 8.80671 17.9895 8.53954 17.7757 8.32565C17.5618 8.11176 17.2895 8.00482 16.959 8.00482C16.6284 8.00482 16.3562 8.11176 16.1423 8.32565L10.3673 14.1007ZM12.0007 23.6673C10.3868 23.6673 8.8701 23.3609 7.45065 22.748C6.03121 22.1359 4.79648 21.3048 3.74648 20.2548C2.69648 19.2048 1.86543 17.9701 1.25332 16.5507C0.640429 15.1312 0.333984 13.6145 0.333984 12.0007C0.333984 10.3868 0.640429 8.8701 1.25332 7.45065C1.86543 6.03121 2.69648 4.79648 3.74648 3.74648C4.79648 2.69648 6.03121 1.86504 7.45065 1.25215C8.8701 0.64004 10.3868 0.333984 12.0007 0.333984C13.6145 0.333984 15.1312 0.64004 16.5507 1.25215C17.9701 1.86504 19.2048 2.69648 20.2548 3.74648C21.3048 4.79648 22.1359 6.03121 22.748 7.45065C23.3609 8.8701 23.6673 10.3868 23.6673 12.0007C23.6673 13.6145 23.3609 15.1312 22.748 16.5507C22.1359 17.9701 21.3048 19.2048 20.2548 20.2548C19.2048 21.3048 17.9701 22.1359 16.5507 22.748C15.1312 23.3609 13.6145 23.6673 12.0007 23.6673ZM12.0007 21.334C14.5868 21.334 16.789 20.4252 18.6075 18.6075C20.4252 16.789 21.334 14.5868 21.334 12.0007C21.334 9.41454 20.4252 7.21226 18.6075 5.39382C16.789 3.57615 14.5868 2.66732 12.0007 2.66732C9.41454 2.66732 7.21265 3.57615 5.39498 5.39382C3.57654 7.21226 2.66732 9.41454 2.66732 12.0007C2.66732 14.5868 3.57654 16.789 5.39498 18.6075C7.21265 20.4252 9.41454 21.334 12.0007 21.334Z" fill="#558B2F"/>
</svg>
